<?xml version="1.0" encoding="utf-8"?>
<!-- Generator: Adobe Illustrator 19.2.1, SVG Export Plug-In . SVG Version: 6.00 Build 0)  -->
<svg version="1.1" xmlns="http://www.w3.org/2000/svg" xmlns:xlink="http://www.w3.org/1999/xlink" x="0px" y="0px"
	 viewBox="0 0 612 792" style="enable-background:new 0 0 612 792;" xml:space="preserve">
<style type="text/css">
	.st0{stroke:#000000;stroke-miterlimit:10;}
	.st1{fill:#8DC63F;}
	.st2{font-family:'SukhumvitSet-Thin';}
	.st3{font-size:60px;}
	.st4{letter-spacing:1;}
	.st5{fill:#E5F1D4;}
	.st6{fill:#EEF6E4;}
	.st7{fill:none;}
	.st8{fill:#EF4136;}
	.st9{font-family:'SukhumvitSet-Medium';}
	.st10{font-size:30.6917px;}
	.st11{fill:#FFFFFF;}
	.st12{fill:#EFEBF5;}
	.st13{fill:#A6D05D;}
	.st14{fill:#79C143;}
	.st15{fill:#ECE7F3;}
</style>
<g id="Layer_1">
	<rect x="67.4" y="156.1" class="st0" width="455.1" height="327.2"/>
	<text transform="matrix(1 0 0 1 159.4761 332.7823)" class="st1 st2 st3 st4">bloom</text>
	<path class="st5" d="M798.3,247"/>
	<path class="st6" d="M571.8,318.2"/>
	<polygon points="388.4,365 318,324.3 404.5,337.2 	"/>
	<path d="M442,347.6"/>
	<path id="SVGID_x5F_1_x5F_" class="st7" d="M323.8,306.3l6.9,3.2c0,0,0.8,8.2,0.4,4.1c-0.4-4.1,1.9-2.1-3.6-0.6
		c-5.5,1.5-3.7-0.3-3.7-3.5"/>
	<text>	<textPath  xlink:href="#SVGID_x5F_1_x5F_" startOffset="44.9219%">
<tspan  class="st2 st3" style="letter-spacing:19;">BETA</tspan>	</textPath>
</text>
	<text transform="matrix(1.041 0 0 1 322 306.3333)" class="st8 st9 st10 st4">BETA</text>
	<path class="st11" d="M255.8,294.4"/>
	<path class="st11" d="M258.3,297.6"/>
	<path class="st11" d="M260.1,298.6"/>
	<path class="st11" d="M256.7,297.2"/>
	<path class="st11" d="M256.4,296.4"/>
	<path class="st11" d="M256.7,297.2"/>
	<path class="st11" d="M263.5,294.2"/>
	<path class="st12" d="M268.2,292.1"/>
	<path class="st12" d="M267.8,293.7"/>
	<path class="st11" d="M277.8,280.4"/>
	<path class="st11" d="M280.3,283.6"/>
	<path class="st11" d="M282.1,284.6"/>
	<path class="st11" d="M278.7,283.2"/>
	<path class="st11" d="M278.7,283.2"/>
	<path class="st11" d="M285.5,280.2"/>
	<path class="st12" d="M290.2,278.1"/>
	<path class="st12" d="M289.8,279.7"/>
	<path class="st13" d="M259.1,272l0.3,0.9l0.3,0.8l0.2,0.6l0.3,0.7l0.2,0.9l0.2,0.7l0.2,0.8l0.2,0.6l0.1,0.8l0.1,0.6l0.1,0.6l0,0.8
		l0,0.8l0,0.9l0,0.8l-0.3,1l-0.2,0.6l-0.2,0.6l-0.2,0.6l-0.1,0.5l-0.2,0.6l-0.2,0.7l-0.2,0.7l-0.4,0.7l-0.2,0.6l-0.3,0.7l-0.4,0.7
		l-0.3,0.6l-4.7,3.4l-0.2-0.6l-0.3-0.7l-0.1-0.8l-0.2-0.8l-0.2-0.8l-0.2-0.8l-0.1-1l-0.1-1l-0.1-0.8l0-1.1l0-1l0.3-1.2l0.3-1
		l0.3-1.1l0.5-1.1l0.6-1.2l0.5-1l0.4-0.8l0.4-0.7c0,0,0.4-0.8,0.5-0.9c0.1-0.1,0.6-0.9,0.6-0.9l0.5-0.7l0.5-0.7l0.6-0.8l0.6-1
		L259.1,272z"/>
	<path class="st14" d="M258.4,276.3c0.2,0,0.5,2.3,0.7,4.2c0.2,1.9,0.2,2.9,0,4.1c-0.1,0.6-0.3,1.1-0.4,1.6
		c-1.1,3.3-4.4,9.5-4.8,9.3c-0.4-0.2,3.1-5,4-12.8C258.3,279.4,258.2,276.3,258.4,276.3z"/>
	<path class="st11" d="M259.9,286l0.8-0.6l0.9-0.6l1.1-0.5l1.2-0.5l1-0.4l0.9-0.3l0.8-0.3c0,0,0.8-0.3,1-0.3c0.1,0,1-0.3,1-0.3
		l0.8-0.2l0.8-0.2l1-0.3l1.1-0.3l1-0.2l-0.3,0.9l-0.3,0.8l-0.2,0.6l-0.3,0.7l-0.4,0.8l-0.3,0.7l-0.4,0.7l-0.3,0.6l-0.4,0.7l-0.3,0.5
		l-0.4,0.5l-0.5,0.6l-0.5,0.6l-0.6,0.7l-0.5,0.6l-0.9,0.6l-0.5,0.3l-0.5,0.3l-0.5,0.3l-0.5,0.3l-0.5,0.4l-0.6,0.4l-0.6,0.4l-0.8,0.3
		l-0.6,0.3l-0.7,0.3l-0.8,0.3l-0.6,0.3l-5.8-0.5l0.2-0.6l0.3-0.7l0.4-0.7l0.4-0.7l0.4-0.7l0.4-0.7l0.6-0.8l0.6-0.8l0.5-0.7"/>
	<path class="st11" d="M252.5,297.6c-0.1,0-0.2-0.1-0.5-0.1c-0.1,0-0.2-0.1-0.3-0.1c-0.5-0.1-0.7-0.2-0.7-0.2l-0.4-0.3l1.1-0.1
		l0.5-0.1l0.5-0.2l0.4-0.4l0.3-0.3c0.1-0.3,0.3-0.5,0.4-0.8c0.1-0.1,0.1-0.2,0.2-0.3l0.8,0c2.7-0.6,5.3-1.2,8-1.8
		c-0.8,0.6-1.3,1-1.8,1.3c-0.1,0.1-0.4,0.3-0.8,0.6c-0.2,0.2-0.4,0.3-0.6,0.4c-0.2,0.1-0.4,0.2-0.6,0.3c-0.1,0.1-0.3,0.1-0.4,0.2
		l-0.5,0.4l-0.5,0.3c0,0-0.3,0.2-0.5,0.3c-0.2,0.1-0.5,0.2-0.5,0.3c0,0,0,0,0.2-0.1c-0.3,0.1-0.5,0.2-0.8,0.3
		c0.2-0.1,0.3-0.1,0.3-0.1c0,0-0.2,0.1-0.6,0.3c-0.2,0-0.3,0-0.5,0.1c-0.1,0-0.2,0.1-0.3,0.1c-0.2,0-0.3,0-0.5,0H254h-0.3
		c-0.1,0-0.2,0-0.4,0C253,297.6,252.8,297.6,252.5,297.6z"/>
	<path class="st15" d="M273.4,280.9c0.2,0.1-0.1,1.7-0.5,3c-0.2,0.4-0.3,0.8-0.8,1.6c-0.5,0.9-0.7,1.4-1.1,2c-0.3,0.5-0.3,0.4-0.7,1
		c-0.6,1-0.7,1.2-1,1.7c-0.4,0.5-0.8,0.9-1.6,1.6c-0.4,0.3-1,0.9-1.9,1.5c-0.5,0.4-0.8,0.5-2.5,1.5c-2.5,1.4-2.6,1.5-3.1,1.8
		c-1,0.5-1.7,0.8-2.8,1c-0.2,0-0.1,0-2.6,0.1c-1.2,0.1-1.7,0.1-2.3,0c-0.9-0.1-1.7-0.5-1.7-0.6c0-0.1,0.8,0,1.7,0
		c1.4,0,2.4-0.4,3.7-1c3.8-1.7,5.7-2.5,8-4c2-1.3,3.2-2.1,4.5-3.5C272.1,284.8,273,280.7,273.4,280.9z"/>
	<path class="st15" d="M275.5,284.8"/>
	<path class="st14" d="M276.6,286.1"/>
	<path class="st14" d="M282.1,288.8"/>
</g>
<g id="Layer_2">
</g>
</svg>
